<mxfile host="app.diagrams.net" modified="2023-09-18T07:49:55.793Z" agent="Mozilla/5.0 (Windows NT 10.0; Win64; x64) AppleWebKit/537.36 (KHTML, like Gecko) Chrome/116.0.0.0 Safari/537.36" etag="pqJvc5vROHIg_NapB0cl" version="21.7.5" type="device">
  <diagram name="Halaman-1" id="UsbSOU3mYxK11GnKeyx6">
    <mxGraphModel dx="1173" dy="515" grid="0" gridSize="10" guides="1" tooltips="1" connect="1" arrows="1" fold="1" page="0" pageScale="1" pageWidth="827" pageHeight="1169" math="0" shadow="0">
      <root>
        <mxCell id="0" />
        <mxCell id="1" parent="0" />
      </root>
    </mxGraphModel>
  </diagram>
</mxfile>
